<svg id="Layer_1" data-name="Layer 1" xmlns="http://www.w3.org/2000/svg" width="127.71304mm" height="83.45353mm" viewBox="0 0 362.02122 236.56118"><defs><style>.cls-1{fill:#fff;}.cls-2{fill:#2b626c;}.cls-3{fill:#ebbd44;}</style></defs><title>logo</title><path class="cls-1" d="M681.37608,788.38641c-10.48767,0-20.9754.02558-31.46295-.01129-4.9162-.01727-5.05579-.2196-5.14124-5.03393-.449-25.29248-1.18283-50.58505-.72177-75.88227.18481-10.14227.85846-20.28015.6788-30.42811-.04815-2.71874.95972-3.35948,3.46677-3.35159,18.81271.05923,37.62576.0059,56.43872-.0056,2.66385-.00162,5.33032-.03605,7.99091.06643,3.80093.14638,4.60376.69228,4.67416,4.28336.16959,8.65428.03982,17.314.121,25.97069.02194,2.33451-1.1889,2.67633-3.13812,2.6736-9.15656-.01284-18.31326.07041-27.46991.11766-1.1655.006-2.34677-.08844-3.49246.02919-3.63252.37295-2.52065,4.37295-2.58417,6.74661-.04879,1.82328-.10519,3.18292,2.42462,3.12436,4.82416-.1117,9.65485.05691,14.48282.1121,1.16443.01331,2.33011.00931,3.49286.0638,2.35754.11046,3.58115,1.10339,3.54074,3.73084q-.1728,11.23639.01587,22.47708c.03412,2.20575-.742,2.84887-2.87213,2.80877-5.992-.11288-11.98792-.07928-17.98154-.02484-3.19507.029-3.31.1081-3.14828,3.39679.3861,7.85007-.62226,6.303,6.41626,6.42926,7.49054.13434,14.98367.11872,22.47549.1893,1.329.01252,2.66376.06366,3.98425.2052,3.78907.40616,4.01337.56021,4.04111,4.16162.06412,8.32355-.07449,16.64978.08511,24.9708.05021,2.61673-.75473,3.47742-3.35708,3.45331-10.9859-.10184-21.9733-.04309-32.96015-.04309Z" transform="translate(-355.674 -552.4058)"/><path class="cls-1" d="M582.02032,788.909c-8.60011-.3497-17.77565-.24716-26.86957-1.5109-3.77934-.52514-3.81886-.60107-3.35267-4.24051,1.18325-9.23745,2.53353-18.45565,3.55537-27.71045.30905-2.79907,1.10338-2.60278,3.38473-1.91091,8.75177,2.65414,17.59812,4.96875,26.79734,5.56875a24.90729,24.90729,0,0,0,6.93985-.42392,7.35906,7.35906,0,0,0,4.22746-2.44833c2.35828-2.83509,2.03342-5.5503-1.125-7.52677-3.42-2.14019-7.3896-2.88781-11.18819-4.05832-7.31654-2.25451-14.55981-4.57708-20.62715-9.62735a30.25939,30.25939,0,0,1-10.3327-15.48918,53.09654,53.09654,0,0,1,.07869-28.57924c2.37685-8.83238,8.72266-13.4483,16.90425-16.04673a35.43407,35.43407,0,0,1,7.80469-1.43793c14.64656-1.19084,29.269-1.1828,43.72409,1.868,2.844.60026,6.67233-.52706,8.32648,2.15448,1.42239,2.30589-.37613,5.47271-.67478,8.26345-.6727,6.28661-1.43762,12.56859-2.39209,18.8178-.57461,3.7623-.77182,3.74713-4.23028,2.40561a93.14842,93.14842,0,0,0-22.14136-5.7206,83.48241,83.48241,0,0,0-8.46251-.50377,10.74235,10.74235,0,0,0-5.29327,1.26879c-3.84939,2.03863-3.97129,5.3276-.18839,7.58828,3.01587,1.80234,6.43256,2.67572,9.75545,3.74221,8.22587,2.64007,16.45422,5.1851,23.782,10.052,12.88242,8.55616,16.66025,21.85117,14.6164,35.64206a41.2507,41.2507,0,0,1-3.26365,11.47211c-4.021,8.60962-11.15548,13.39362-19.96988,15.96576a54.20339,54.20339,0,0,1-9.27017,1.92819C595.90544,789.13135,589.22967,788.96723,582.02032,788.909Z" transform="translate(-355.674 -552.4058)"/><path class="cls-2" d="M487.72544,670.75c-4.30877.375-8.77023-.00993-13.21145.16235-4.15628.16121-4.95832.77468-5.70365,4.60961q-4.00572,20.61046-8.02276,41.21872c-.82778,4.25241-4.682,5.20447-7.75955,6.87388a8.57533,8.57533,0,0,1-3.27842.9016c-3.43236.20732-5.35543,1.68658-5.10382,5.24576.12592,1.781-1.07325,2.84637-1.99716,3.85289-7.66872,8.35461-20.69559,9.04785-28.02773-.66242a32.44985,32.44985,0,0,1-6.63528-18.82208c-.17556-5.83166,1.39335-11.7503,3.24261-17.422.35836-1.09909.65975-2.21852,1.05883-3.30226a15.61415,15.61415,0,0,0-1.07918-13.75549c-3.90514-7.16708.4674-15.90692,8.37736-17.87761.48151-.12.98261-.15991,1.4732-.24512,3.28231-.57016,5.989-1.54226,7.69381-5.03939a12.21718,12.21718,0,0,1,6.11364-5.6746c5.2841-2.2546,11.53844-1.0877,15.13933,4.02083,3.3552,4.76,7.78828,5.51372,12.84127,5.937,7.59334.63608,15.10365,1.73388,21.96085,5.44838,1.51523.8208,3.00851,1.52411,2.9181,3.589Z" transform="translate(-355.674 -552.4058)"/><path class="cls-3" d="M522.486,671.155c3.38859.0088,4.15222.44807,5.21473,3.83846,1.54265,4.92237,2.158,10.05368,2.93389,15.13327.53372,3.49421.58891,3.45687,4.29538,3.93945,4.69794.61169,8.61557-1.83389,12.9205-2.7116a4.20738,4.20738,0,0,0,3.44968-3.089c3.37114-9.77164,10.67381-14.78136,20.363-17.10224,3.90767-.936,7.90489-.96832,11.82822-1.68544,1.77318-.32409,2.20445-.76579,1.6823-2.55046a33.5724,33.5724,0,0,0-11.68107-16.9977c-4.01986-3.221-8.31085-6.10261-12.46447-9.158-2.60016-1.91266-4.45893-4.018-4.87252-7.64856-.64711-5.6805-3.89125-9.6652-9.60966-11.5738-4.34747-1.451-7.83759.28533-11.29865,2.30614-2.13458,1.24634-3.8599,1.664-6.42338.59767-2.79793-1.16388-5.93735-2.13792-9.23566-1.16732-6.04063,1.77757-10.02052,6.29315-9.85731,12.822.1154,4.61594-1.64885,7.93465-4.6304,10.98868-.69747.71443-1.4153,1.40906-2.10894,2.12714-4.28053,4.43138-8.51446,8.89761-11.79146,14.16989-1.18894,1.91288-1.603,4.2904-3.47473,5.79046V670.75Z" transform="translate(-355.674 -552.4058)"/><path class="cls-3" d="M568.62437,586.90153a30.0248,30.0248,0,0,1-3.38886,14.0965c-3.56886,6.87554-14.25,9.94379-21.42878,6.43343a18.47793,18.47793,0,0,1-9.41686-10.42207c-3.95094-10.067-2.58153-19.91111.67189-29.75173a35.37914,35.37914,0,0,1,5.27735-10.12719c4.31833-5.78976,10.16462-6.36966,15.21072-1.12248a47.282,47.282,0,0,1,11.9572,23.19536C568.10891,581.94992,568.95422,584.70052,568.62437,586.90153Z" transform="translate(-355.674 -552.4058)"/><path class="cls-2" d="M426.32141,638.77269a17.368,17.368,0,0,1-12.06755-4.80586c-8.75741-7.90715-12.51-17.96108-13.66243-29.342a48.45254,48.45254,0,0,1-.0283-7.73974c.23714-4.1196,2.53094-6.73151,5.63021-8.85551a6.341,6.341,0,0,1,5.64423-.768,40.34345,40.34345,0,0,1,14.89379,7.5926c7.50318,6.11767,14.19376,12.744,16.19983,22.98074C445.18228,629.322,437.93254,638.82607,426.32141,638.77269Z" transform="translate(-355.674 -552.4058)"/><path class="cls-2" d="M363.60091,625.18668a29.65633,29.65633,0,0,1,.66912-5.89252c1.72412-6.07741,5.96341-9.07791,11.8104-7.24263,13.96,4.38187,24.75178,12.8139,29.9404,26.78238,3.831,10.31363-.63458,21.99557-14.80062,24.408a13.11118,13.11118,0,0,1-7.61449-1.51458,30.48381,30.48381,0,0,1-12.832-12.05132C366.2121,642.03624,364.2078,633.53693,363.60091,625.18668Z" transform="translate(-355.674 -552.4058)"/><path class="cls-3" d="M488.50274,585.04017a48.493,48.493,0,0,1,7.08168-22.95063c3.955-6.40083,10.44684-7.4297,15.87424-2.14336a45.70111,45.70111,0,0,1,12.05481,21.48841c1.61156,6.10318,2.07628,12.40159.25947,18.71384-1.7998,6.25323-7.41249,11.70812-13.44686,12.55807-7.57815,1.06737-14.26-2.068-17.75905-8.3332C489.39881,598.70048,488.45416,594.71179,488.50274,585.04017Z" transform="translate(-355.674 -552.4058)"/><path class="cls-2" d="M476.579,605.82861c11.50826,6.76847,14.84452,25.4186,6.83307,35.2992-1.15544,1.425-2.52415,2.66679-4.584,2.57736a17.18762,17.18762,0,0,0-2.334.71193c-7.67991,3.55608-13.11553,2.67487-18.35227-3.90781-4.58221-5.75991-7.4596-12.46829-7.45068-20.00763a24.1918,24.1918,0,0,1,7.58135-17.82966c7.97752-7.547,18.30652,3.15661,18.30652,3.15661" transform="translate(-355.674 -552.4058)"/><path class="cls-2" d="M472.89052,603.10436" transform="translate(-355.674 -552.4058)"/><path class="cls-2" d="M472.63572,602.16015" transform="translate(-355.674 -552.4058)"/><path class="cls-2" d="M381.0089,704.77345c-9.33235-1.10937-16.8799-5.07354-21.30507-13.905-2.48627-4.96193-3.26971-10.38106-3.92623-15.76839-.55752-4.57493,1.1128-6.27437,5.55552-7.737,17.81842-5.866,33.039,7.86831,35.84317,21.50739.78674,3.82667-.746,7.26926-3.27676,9.92766A20.10551,20.10551,0,0,1,381.0089,704.77345Z" transform="translate(-355.674 -552.4058)"/><path class="cls-3" d="M569.66636,616.58371c-.241-11.51672,5.20744-19.915,15.54592-25.37559,4.95678-2.61806,7.61781-2.16389,11.03161,2.80766,3.18416,4.6371,5.76988,9.5824,6.74945,15.3137,1.3347,7.80918-.90367,14.495-5.89308,20.285-3.78793,4.3958-8.94562,6.2255-14.70129,6.0458-5.33574-.16657-9.77616-3.86391-11.56626-9.431A24.194,24.194,0,0,1,569.66636,616.58371Z" transform="translate(-355.674 -552.4058)"/><path class="cls-3" d="M478.82812,643.70517c7.24936-4.78534,8.17407-12.08778,7.58224-19.79381-.569-7.40861-5.30812-12.7285-9.83136-18.08275a5.00053,5.00053,0,0,1,3.46267-.39111c6.70019.7276,8.29449,5.44216,10.75929,10.70807a30.44962,30.44962,0,0,1,2.86116,18.25777c-.97122,5.90107-5.25795,8.72776-9.83446,11.16559A3.54605,3.54605,0,0,1,478.82812,643.70517Z" transform="translate(-355.674 -552.4058)"/><path class="cls-1" d="M460.35925,732.50885q-4.71588,25.97424-9.40582,51.95313c-.54681,3.05419.10785,3.78375,3.41168,3.878,9.6507.27563,19.30139.2525,28.95722.12158,2.94836-.03992,3.64471-1.45123,4.01574-3.7041.81049-4.92035,1.72986-9.82929,2.31452-14.77716.23272-1.96967.96057-2.53974,2.78418-2.505,3.99389.07624,7.99377.13117,11.98407-.00854,2.29187-.08026,3.16516.69989,3.47253,3.03753.626,4.76032,1.76795,9.45118,2.457,14.20551.38812,2.678,1.68958,3.64539,4.29328,3.69965,9.8208.20452,19.63787.22906,29.4588-.00538,2.14245-.05114,2.91943-.513,2.52112-2.903-4.043-24.25818-8.59626-48.4176-13.42969-72.53082-2.25849-11.26746-5.26483-22.38611-6.71942-33.82117-.55744-4.38214-1.96381-5.38654-6.5625-5.41864-7.32477-.05115-14.65021-.01367-21.97535-.01367v.017q-10.23843,0-20.47692-.00135c-5.36084-.00427-5.39283-.016-6.41236,5.00959-1.18792,5.85589-2.31164,11.72485-3.46515,17.58777Zm38.93909,10.06433c-.49939.00519-.9989.00067-1.49835,0-.99884-.00067-1.99835.02081-2.99652-.0061-1.25721-.03388-1.55677-.56873-1.41376-1.899,1.20764-11.23456,2.30456-22.48108,3.446-33.72284.04584-.45135.05176-1.02215.69727-1.07837.81567-.0711,1.12891.43079,1.23932,1.16559.4693,3.12457,1.16833,6.23157,1.39081,9.3728.51727,7.30536,1.97064,14.47663,2.86114,21.72638C503.56525,742.53619,503.63672,742.52789,499.29834,742.57318Z" transform="translate(-355.674 -552.4058)"/></svg>